<?xml version="1.0" encoding="utf-8"?>
<!-- Generator: Adobe Adobe Illustrator 24.2.0, SVG Export Plug-In . SVG Version: 6.00 Build 0)  -->
<svg version="1.1" id="Layer_1" xmlns="http://www.w3.org/2000/svg" xmlns:xlink="http://www.w3.org/1999/xlink" x="0px" y="0px"
	 width="1920px" height="1080px" viewBox="0 0 1920 1080" style="enable-background:new 0 0 1920 1080;" xml:space="preserve">
<style type="text/css">
	.st0{fill:none;stroke:#21145F;stroke-width:16;stroke-miterlimit:10;}
	.st1{fill:#B4B3DF;stroke:#655DC6;stroke-width:10;stroke-miterlimit:10;}
	.st2{fill:#B4B3DF;stroke:#655DC6;stroke-width:11;stroke-miterlimit:10;}
	.st3{fill:#FFFFFF;stroke:#655DC6;stroke-width:3;stroke-miterlimit:10;}
	.st4{fill:#FFFFFF;stroke:#4435CC;stroke-width:3;stroke-miterlimit:10;}
</style>
<path class="st0" d="M40.54,235.36c151.75-68.71,268.6-37.99,268.6-37.99"/>
<path class="st1" d="M94.93,80.83c21.1-25.47,98.01-15,97.29,2.93c-1.16,28.7-77.01,22.87-76.65,22.91"/>
<path class="st2" d="M174.94,55.24c16.1-0.6,51.34,102.85,51.34,102.85c16.01-36.24,40.75-98.29,61.23-98.29
	c31.21,0-35,148-63.89,148C194.66,207.8,145.78,56.33,174.94,55.24z"/>
<path class="st1" d="M114.61,173.27c0,0,39.9,12.99,72.81,6.2c-15.21,27.26-89.74,26.34-106.48,20.49"/>
<path class="st1" d="M121.42,120.47c11.37,1.01,55.63-6.12,69.85,14.31c-14.21,28.97-52.79,21.33-71.85,18.25"/>
<path class="st1" d="M43.25,62.96c-0.9,49.06,0.12,94.44-0.79,143.5c0,0,76.95,6.48,76.95-67.09
	C119.42,64.34,43.25,62.96,43.25,62.96z"/>
<path class="st3" d="M64.67,91.61c0,0,1.76,73.46,0.98,92.99c11.97-0.37,28.39-21.04,28.39-46.44
	C94.04,104.34,64.67,91.61,64.67,91.61z"/>
<path class="st4" d="M27.47,32.83"/>
<path class="st0" d="M18.48,213.68V43.04c0-11.97,10.14-21.68,22.65-21.68h250.7c12.51,0,22.65,9.71,22.65,21.68v170.64
	c0,11.97-10.14,21.68-22.65,21.68H41.13C28.62,235.36,18.48,225.66,18.48,213.68z"/>
</svg>
